# xmcd
#
# Track frame offsets:
#	150
#	12957
#	32792
#	48249
#	68371
#	83573
#	96576
#	111827
#	124570
#	137670
#	150575
#	184014
#	200179
#	218698
#	247403
#	261378
#	280517
#	297476
#	308680
#
# Disc length: 4332 seconds
#
# Revision: 1
# Processed by: cddbd v1.5.2PL0 Copyright (c) Steve Scherf et al.
# Submitted via: audiograbber 1.83.01
#
DISCID=1310ea13
DTITLE=Cash - Gott - Johnny Cash and Karel Gott
DYEAR=1900
DGENRE=Country
TTITLE0=Johnny Cash - yyy
TTITLE1=Johnny Cash - In A Souther Town
TTITLE2=Johnny Cash - yyy
TTITLE3=Johnny Cash - Let Him Roll
TTITLE4=Johnny Cash - On The Night Hank Williams Came To Town
TTITLE5=Johnny Cash - Sixteen Tons
TTITLE6=Johhny Cash - Without These Letters From Home
TTITLE7=Johnny Cash - yyy
TTITLE8=Johnny Cash - yyy
TTITLE9=Johnny Cash - yyy
TTITLE10=Karel Gott - Ich möchte wohl ein König einmal sein
TTITLE11=Karel Gott - Wunder gibt es immer wieder
TTITLE12=Karel Gott - Tage ohne dich
TTITLE13=Karel Gott - Oh Lady Marry
TTITLE14=Karel Gott - Einmal um die ganze Welt
TTITLE15=Karel Gott - Wenn süß das Mondlicht auf den Hügeln schläft
TTITLE16=Karel Gott - Abschiedsmelodie
TTITLE17=Karel Gott - Was hast du nur mit mir getan
TTITLE18=Karel Gott - Gestern war die Welt noch weit
EXTD=
EXTT0=
EXTT1=
EXTT2=
EXTT3=
EXTT4=
EXTT5=
EXTT6=
EXTT7=
EXTT8=
EXTT9=
EXTT10=
EXTT11=
EXTT12=
EXTT13=
EXTT14=
EXTT15=
EXTT16=
EXTT17=
EXTT18=
PLAYORDER=
